<?xml version="1.0" encoding="UTF-8" standalone="no"?>
<!-- Created with Inkscape (http://www.inkscape.org/) -->

<svg
   xmlns:dc="http://purl.org/dc/elements/1.1/"
   xmlns:cc="http://creativecommons.org/ns#"
   xmlns:rdf="http://www.w3.org/1999/02/22-rdf-syntax-ns#"
   xmlns:svg="http://www.w3.org/2000/svg"
   xmlns="http://www.w3.org/2000/svg"
   xmlns:sodipodi="http://sodipodi.sourceforge.net/DTD/sodipodi-0.dtd"
   xmlns:inkscape="http://www.inkscape.org/namespaces/inkscape"
   width="142.2558mm"
   height="152.51894mm"
   viewBox="0 0 504.05598 540.42142"
   id="svg2"
   version="1.1"
   inkscape:version="0.91 r13725"
   sodipodi:docname="zplugin_refcard.svg">
  <sodipodi:namedview
     id="base"
     pagecolor="#ffffff"
     bordercolor="#666666"
     borderopacity="1.0"
     inkscape:pageopacity="0.0"
     inkscape:pageshadow="2"
     inkscape:zoom="1.4"
     inkscape:cx="309.20259"
     inkscape:cy="308.83375"
     inkscape:document-units="px"
     inkscape:current-layer="layer1"
     showgrid="false"
     inkscape:window-width="1920"
     inkscape:window-height="1036"
     inkscape:window-x="0"
     inkscape:window-y="0"
     inkscape:window-maximized="1"
     fit-margin-top="0"
     fit-margin-left="0"
     fit-margin-right="0"
     fit-margin-bottom="0" />
  <defs
     id="defs4">
    <inkscape:perspective
       id="perspective3566"
       inkscape:persp3d-origin="345.16608 : 549.12235 : 1"
       inkscape:vp_z="441.52322 : 595.01331 : 1"
       inkscape:vp_y="0 : 261.64546 : 0"
       inkscape:vp_x="248.80894 : 595.01331 : 1"
       sodipodi:type="inkscape:persp3d" />
    <inkscape:perspective
       id="perspective3536"
       inkscape:persp3d-origin="247.79848 : 470.99552 : 1"
       inkscape:vp_z="619.84573 : 646.38921 : 1"
       inkscape:vp_y="0 : 999.99991 : 0"
       inkscape:vp_x="-124.24876 : 646.3892 : 1"
       sodipodi:type="inkscape:persp3d" />
    <inkscape:perspective
       id="perspective3352"
       inkscape:persp3d-origin="372.04725 : 350.78738 : 1"
       inkscape:vp_z="744.0945 : 526.18106 : 1"
       inkscape:vp_y="0 : 999.99993 : 0"
       inkscape:vp_x="0 : 526.18106 : 1"
       sodipodi:type="inkscape:persp3d" />
  </defs>
  <metadata
     id="metadata7">
    <rdf:RDF>
      <cc:Work
         rdf:about="">
        <dc:format>image/svg+xml</dc:format>
        <dc:type
           rdf:resource="http://purl.org/dc/dcmitype/StillImage" />
        <dc:title></dc:title>
      </cc:Work>
    </rdf:RDF>
  </metadata>
  <g
     id="layer1"
     inkscape:groupmode="layer"
     inkscape:label="Layer 1"
     transform="translate(-66.17007,-263.94324)">
    <text
       xml:space="preserve"
       style="font-style:normal;font-weight:normal;font-size:40px;line-height:125%;font-family:sans-serif;letter-spacing:0px;word-spacing:0px;fill:#000000;fill-opacity:1;stroke:none;stroke-width:1px;stroke-linecap:butt;stroke-linejoin:miter;stroke-opacity:1"
       x="454.56866"
       y="598.80371"
       id="text4478"
       sodipodi:linespacing="125%"><tspan
         sodipodi:role="line"
         id="tspan4480"
         x="454.56866"
         y="598.80371" /></text>
    <rect
       style="fill:#e9c6af;fill-rule:evenodd;stroke:#000000;stroke-width:1.01140678px;stroke-linecap:butt;stroke-linejoin:miter;stroke-opacity:1"
       id="rect3475"
       width="503.04456"
       height="539.41003"
       x="66.675774"
       y="264.44894" />
    <rect
       style="fill:#e5ff80;stroke:#000000;stroke-opacity:1"
       id="rect3479"
       width="112.12693"
       height="69.700523"
       x="104.23192"
       y="406.37878" />
    <g
       id="g4800">
      <g
         sodipodi:type="inkscape:box3d"
         id="g3552"
         style="fill:none;fill-rule:evenodd;stroke:none;stroke-width:1px;stroke-linecap:butt;stroke-linejoin:round;stroke-opacity:1"
         inkscape:perspectiveID="#perspective3566"
         inkscape:corner0="0.50329785 : -0.24812166 : 0 : 1"
         inkscape:corner7="0.21153939 : -0.3592929 : 0.25 : 1">
        <path
           sodipodi:type="inkscape:box3dside"
           id="path3562"
           style="fill:#afafde;fill-rule:evenodd;stroke:none;stroke-width:1px;stroke-linecap:butt;stroke-linejoin:round;stroke-opacity:1"
           inkscape:box3dsidetype="13"
           d="m 379.07617,302.4123 15.43565,22.41059 19.35997,-19.7517 -16.4563,-15.92831 z"
           points="394.51182,324.82289 413.87179,305.07119 397.41549,289.14288 379.07617,302.4123 " />
        <path
           sodipodi:type="inkscape:box3dside"
           id="path3554"
           style="fill:#353564;fill-rule:evenodd;stroke:none;stroke-width:1px;stroke-linecap:butt;stroke-linejoin:round;stroke-opacity:1"
           inkscape:box3dsidetype="6"
           d="m 379.07617,283.0632 0,19.3491 18.33932,-13.26942 0,-16.59014 z"
           points="379.07617,302.4123 397.41549,289.14288 397.41549,272.55274 379.07617,283.0632 " />
        <path
           sodipodi:type="inkscape:box3dside"
           id="path3564"
           style="fill:#e9e9ff;fill-rule:evenodd;stroke:none;stroke-width:1px;stroke-linecap:butt;stroke-linejoin:round;stroke-opacity:1"
           inkscape:box3dsidetype="11"
           d="m 397.41549,272.55274 16.4563,12.61652 0,19.90193 -16.4563,-15.92831 z"
           points="413.87179,285.16926 413.87179,305.07119 397.41549,289.14288 397.41549,272.55274 " />
        <path
           sodipodi:type="inkscape:box3dside"
           id="path3556"
           style="fill:#4d8c9f;fill-opacity:1;fill-rule:evenodd;stroke:none;stroke-width:1px;stroke-linecap:butt;stroke-linejoin:round;stroke-opacity:1"
           inkscape:box3dsidetype="5"
           d="m 379.07617,283.0632 15.43565,17.75102 19.35997,-15.64496 -16.4563,-12.61652 z"
           points="394.51182,300.81422 413.87179,285.16926 397.41549,272.55274 379.07617,283.0632 " />
        <path
           sodipodi:type="inkscape:box3dside"
           id="path3560"
           style="fill:#d7f6ff;fill-opacity:1;fill-rule:evenodd;stroke:none;stroke-width:1px;stroke-linecap:butt;stroke-linejoin:round;stroke-opacity:1"
           inkscape:box3dsidetype="14"
           d="m 394.51182,300.81422 0,24.00867 19.35997,-19.7517 0,-19.90193 z"
           points="394.51182,324.82289 413.87179,305.07119 413.87179,285.16926 394.51182,300.81422 " />
        <path
           sodipodi:type="inkscape:box3dside"
           id="path3558"
           style="fill:#6fadbf;fill-opacity:1;fill-rule:evenodd;stroke:none;stroke-width:1px;stroke-linecap:butt;stroke-linejoin:round;stroke-opacity:1"
           inkscape:box3dsidetype="3"
           d="m 379.07617,283.0632 15.43565,17.75102 0,24.00867 -15.43565,-22.41059 z"
           points="394.51182,300.81422 394.51182,324.82289 379.07617,302.4123 379.07617,283.0632 " />
      </g>
      <g
         transform="matrix(0.20094782,0,0,0.20094782,346.74993,142.83313)"
         style="font-style:normal;font-weight:normal;font-size:40px;line-height:125%;font-family:sans-serif;letter-spacing:0px;word-spacing:0px;fill:#73c2c6;fill-opacity:1;stroke:none;stroke-width:1px;stroke-linecap:butt;stroke-linejoin:miter;stroke-opacity:1"
         id="text3574">
        <path
           style="fill:#73c2c6;fill-opacity:1"
           inkscape:connector-curvature="0"
           d="m 307.08638,707.39511 c 0,0 -66.67007,55.55839 -66.67007,55.55839 0,0 -8.16931,-9.30394 -8.16931,-9.30394 0,0 11.47893,-77.7946 11.47893,-77.7946 0,0 -50.32953,29.67193 -50.32953,29.67193 0,0 -5.30931,-5.9558 -5.30931,-5.9558 0,0 60.90107,-34.52658 60.90107,-34.52658 0,0 5.82389,4.40872 5.82389,4.40872 0,0 -7.5004,72.95898 -7.5004,72.95898 0,0 51.85675,-40.97311 51.85675,-40.97311 0,0 7.91798,5.95601 7.91798,5.95601 0,0 0,0 0,0"
           id="path3579" />
      </g>
      <g
         id="text3661"
         style="font-style:normal;font-weight:normal;font-size:40px;line-height:125%;font-family:sans-serif;letter-spacing:0px;word-spacing:0px;fill:#000000;fill-opacity:1;stroke:none;stroke-width:1px;stroke-linecap:butt;stroke-linejoin:miter;stroke-opacity:1"
         transform="matrix(0.21124921,0,0,0.21124921,340.00858,125.75526)">
        <path
           style="fill:#000000;fill-opacity:1"
           id="path3666"
           d="m 209.15469,820.22268 c -0.047,3.30097 -0.32618,6.01318 -0.83617,8.13007 -0.50782,2.08517 -1.19914,3.49484 -2.07085,4.23084 -0.80555,0.71547 -1.74071,0.84011 -2.80234,0.38029 -1.04065,-0.4637 -2.1282,-1.48119 -3.26106,-3.04409 -0.97678,-1.34758 -1.85346,-2.78249 -2.63214,-4.30533 -0.76246,-1.4975 -1.53256,-3.24911 -2.31003,-5.2518 0,0 -0.24146,16.11216 -0.24146,16.11216 0,0 -3.00564,-4.32587 -3.00564,-4.32587 0,0 0.78544,-51.83948 0.78544,-51.83948 0,0 3.00754,3.62854 3.00754,3.62854 0,0 -0.0601,4.00967 -0.0601,4.00967 0.83485,-0.44913 1.77056,-0.54012 2.80955,-0.26887 1.05959,0.26382 2.18884,1.11279 3.3898,2.5561 2.32287,2.79161 4.13366,6.826 5.40883,12.10673 1.30222,5.3322 1.91223,11.30688 1.81862,17.88104 0,0 0,0 0,0 m -3.47982,-4.30311 c 0.0697,-4.82983 -0.28395,-8.94743 -1.05682,-12.33685 -0.7675,-3.36584 -1.97185,-6.05089 -3.60014,-8.05187 -0.91244,-1.12129 -1.82943,-1.83469 -2.75091,-2.14488 -0.91441,-0.30781 -1.78754,-0.31362 -2.6203,-0.0207 0,0 -0.32575,21.73611 -0.32575,21.73611 0.85506,1.99442 1.59458,3.56825 2.21618,4.71473 0.63606,1.16769 1.36145,2.30367 2.17777,3.40881 1.77511,2.40317 3.19722,3.04793 4.25263,1.89977 1.0642,-1.15773 1.63555,-4.22918 1.70734,-9.20509 0,0 0,0 0,0"
           inkscape:connector-curvature="0" />
        <path
           style="fill:#000000;fill-opacity:1"
           id="path3668"
           d="m 217.96783,853.60503 c 0,0 -3.62571,-4.98985 -3.62571,-4.98985 0,0 0.80683,-57.88822 0.80683,-57.88822 0,0 3.62598,4.13428 3.62598,4.13428 0,0 -0.8071,58.74379 -0.8071,58.74379 0,0 0,0 0,0"
           inkscape:connector-curvature="0" />
        <path
           style="fill:#000000;fill-opacity:1"
           id="path3670"
           d="m 246.25038,892.52874 c 0,0 -4.47535,-6.15917 -4.47535,-6.15917 0,0 0.064,-5.14617 0.064,-5.14617 -1.50149,0.0605 -2.92018,-0.27481 -4.25814,-1.0002 -1.32523,-0.7185 -2.76465,-2.15446 -4.31422,-4.29438 -2.55781,-3.53227 -4.49675,-7.64523 -5.8423,-12.35078 -1.33075,-4.68108 -1.95476,-9.70422 -1.88274,-15.10466 0,0 0.37588,-28.18457 0.37588,-28.18457 0,0 3.95481,4.77141 3.95481,4.77141 0,0 -0.32935,25.10202 -0.32935,25.10202 -0.0294,2.23983 0.002,4.23903 0.0952,5.99854 0.0934,1.73493 0.31834,3.41902 0.67567,5.05451 0.37242,1.68613 0.86554,3.21444 1.48069,4.58592 0.61807,1.37796 1.52826,2.88167 2.73649,4.5172 1.08481,1.46848 2.28277,2.56553 3.59655,3.28735 1.34163,0.74933 2.6069,1.0923 3.79344,1.02308 0,0 0.42932,-34.51404 0.42932,-34.51404 0,0 4.47336,5.39704 4.47336,5.39704 0,0 -0.57337,47.0169 -0.57337,47.0169 0,0 0,0 0,0"
           inkscape:connector-curvature="0" />
      </g>
      <g
         transform="matrix(0.22241591,0,0,0.22241591,297.26904,116.72078)"
         style="font-style:normal;font-weight:normal;font-size:40px;line-height:125%;font-family:sans-serif;letter-spacing:0px;word-spacing:0px;fill:#000000;fill-opacity:1;stroke:none;stroke-width:1px;stroke-linecap:butt;stroke-linejoin:miter;stroke-opacity:1"
         id="text3760">
        <path
           style="fill:#000000;fill-opacity:1"
           inkscape:connector-curvature="0"
           d="m 473.34182,861.0411 c -0.0214,7.67785 -1.09576,14.35657 -3.23951,20.08959 -2.16591,5.79232 -5.5358,11.02404 -10.17343,15.73194 -1.5644,1.5881 -3.1054,2.97044 -4.6224,4.14433 -1.51061,1.19285 -3.01444,2.22051 -4.5113,3.08101 0,0 0.003,-8.19904 0.003,-8.19904 0,0 0.27496,-0.27221 0.27496,-0.27221 0.8406,-0.3209 2.16742,-1.01333 3.97078,-2.07106 1.78703,-1.02008 3.55843,-2.40833 5.31463,-4.16003 1.67148,-1.66719 3.04561,-3.35503 4.12856,-5.06711 1.07717,-1.70295 1.9118,-3.40846 2.50693,-5.11976 0.59337,-1.65178 1.01734,-3.35249 1.27299,-5.1043 0.25541,-1.75012 0.38514,-3.55412 0.38939,-5.41383 0,0 0.01,-4.18712 0.01,-4.18712 -1.43666,3.23587 -2.82281,5.96852 -4.15752,8.19198 -1.32623,2.19375 -3.03438,4.30548 -5.1345,6.34044 -3.55009,3.43995 -6.41668,4.17332 -8.57059,2.13646 -2.16033,-2.1068 -3.24986,-6.96377 -3.24986,-14.562 0,-4.16555 0.374,-8.08912 1.12032,-11.75964 0.76266,-3.7047 1.79084,-7.21323 3.08063,-10.51951 1.19091,-3.06511 2.629,-5.87341 4.30886,-8.42179 1.66638,-2.55626 3.30984,-4.5192 4.93047,-5.89576 1.69448,-1.43929 3.09792,-2.35238 4.21625,-2.74674 1.12898,-0.43441 2.31012,-0.62621 3.5423,-0.57755 0,0 0.30782,-2.24649 0.30782,-2.24649 0,0 4.39432,-3.74701 4.39432,-3.74701 0,0 -0.11254,40.3552 -0.11254,40.3552 0,0 0,0 0,0 m -4.66141,-2.91763 c 0,0 0.0573,-25.11334 0.0573,-25.11334 -1.26565,0.16769 -2.45505,0.53979 -3.56661,1.11793 -1.10068,0.5386 -2.20799,1.2901 -3.32193,2.25627 -2.72405,2.3627 -4.89614,5.72118 -6.49681,10.07479 -1.61245,4.38565 -2.42478,9.42157 -2.42807,15.07832 -0.003,5.36468 0.59414,8.86704 1.78591,10.50372 1.18406,1.62608 3.13522,1.14038 5.83165,-1.42302 1.43024,-1.35967 2.85096,-3.13965 4.26245,-5.33575 1.41877,-2.22451 2.70996,-4.61053 3.87606,-7.15892 0,0 0,0 0,0"
           id="path3765" />
        <path
           style="fill:#000000;fill-opacity:1"
           inkscape:connector-curvature="0"
           d="m 487.1056,801.67265 c 0,0 -4.93739,4.11188 -4.93739,4.11188 0,0 0.0291,-7.82842 0.0291,-7.82842 0,0 4.9411,-4.01232 4.9411,-4.01232 0,0 -0.0328,7.72886 -0.0328,7.72886 0,0 0,0 0,0 m -0.49289,51.62315 c 0,0 -4.35649,4.22911 -4.35649,4.22911 0,0 0.16688,-44.48659 0.16688,-44.48659 0,0 4.37524,-3.73074 4.37524,-3.73074 0,0 -0.18563,43.98822 -0.18563,43.98822 0,0 0,0 0,0"
           id="path3767" />
        <path
           style="fill:#000000;fill-opacity:1"
           inkscape:connector-curvature="0"
           d="m 514.33397,826.38508 c 0,0 -3.72687,3.61789 -3.72687,3.61789 0,0 0.15925,-23.43413 0.15925,-23.43413 0.0129,-1.8966 -0.0353,-3.61691 -0.14473,-5.16156 -0.10936,-1.57097 -0.32209,-2.68444 -0.63857,-3.3402 -0.32997,-0.74435 -0.81122,-1.08789 -1.44499,-1.02925 -0.636,0.0339 -1.46771,0.49629 -2.49784,1.39087 -1.06391,0.92391 -2.18598,2.37406 -3.36705,4.35579 -1.18868,1.9945 -2.3368,4.22487 -3.44341,6.69216 0,0 -0.17639,31.74224 -0.17639,31.74224 0,0 -4.06779,3.94885 -4.06779,3.94885 0,0 0.22032,-43.02923 0.22032,-43.02923 0,0 4.08399,-3.48239 4.08399,-3.48239 0,0 -0.0264,4.74426 -0.0264,4.74426 1.26568,-2.94188 2.56302,-5.49521 3.89106,-7.66278 1.3185,-2.15201 2.65888,-3.80379 4.02027,-4.96015 2.46197,-2.0912 4.30672,-2.32081 5.55269,-0.72029 1.2362,1.58798 1.83266,4.88033 1.79667,9.88235 0,0 -0.19025,26.44557 -0.19025,26.44557 0,0 0,0 0,0"
           id="path3769" />
      </g>
    </g>
    <text
       xml:space="preserve"
       style="font-style:normal;font-weight:normal;font-size:40px;line-height:125%;font-family:sans-serif;letter-spacing:0px;word-spacing:0px;fill:#000000;fill-opacity:1;stroke:none;stroke-width:1px;stroke-linecap:butt;stroke-linejoin:miter;stroke-opacity:1"
       x="220.35539"
       y="307.94067"
       id="text3481"
       sodipodi:linespacing="125%"><tspan
         sodipodi:role="line"
         id="tspan3483"
         x="220.35539"
         y="307.94067">Zplugin</tspan></text>
    <text
       xml:space="preserve"
       style="font-style:normal;font-weight:normal;font-size:40px;line-height:125%;font-family:sans-serif;letter-spacing:0px;word-spacing:0px;fill:#000000;fill-opacity:1;stroke:none;stroke-width:1px;stroke-linecap:butt;stroke-linejoin:miter;stroke-opacity:1"
       x="87.883278"
       y="369.49911"
       id="text3485"
       sodipodi:linespacing="125%"><tspan
         sodipodi:role="line"
         id="tspan3487"
         x="87.883278"
         y="369.49911">Plugins</tspan></text>
    <rect
       style="fill:#e5ff80;stroke:#000000;stroke-opacity:1"
       id="rect3479-3"
       width="112.12693"
       height="69.700523"
       x="104.23192"
       y="504.69727" />
    <rect
       style="fill:#e5ff80;stroke:#000000;stroke-opacity:1"
       id="rect3479-0"
       width="112.12693"
       height="69.700523"
       x="104.23192"
       y="603.01575" />
    <rect
       style="fill:#e5ff80;stroke:#000000;stroke-opacity:1"
       id="rect3479-9"
       width="112.12693"
       height="69.700523"
       x="104.23192"
       y="701.33423" />
    <text
       xml:space="preserve"
       style="font-style:normal;font-variant:normal;font-weight:normal;font-stretch:normal;font-size:27.5px;line-height:125%;font-family:sans-serif;-inkscape-font-specification:'sans-serif, Normal';text-align:start;letter-spacing:0px;word-spacing:0px;writing-mode:lr-tb;text-anchor:start;fill:#000000;fill-opacity:1;stroke:none;stroke-width:1px;stroke-linecap:butt;stroke-linejoin:miter;stroke-opacity:1"
       x="355.9104"
       y="359.39755"
       id="text3520"
       sodipodi:linespacing="125%"><tspan
         sodipodi:role="line"
         id="tspan3522"
         x="355.9104"
         y="359.39755">report</tspan></text>
    <path
       style="fill:none;fill-rule:evenodd;stroke:#000000;stroke-width:1px;stroke-linecap:butt;stroke-linejoin:miter;stroke-opacity:1"
       d="M 313.60508,461.42297 217.18279,435.58669"
       id="path3524"
       inkscape:connector-curvature="0" />
    <text
       xml:space="preserve"
       style="font-style:normal;font-variant:normal;font-weight:normal;font-stretch:normal;font-size:27.5px;line-height:125%;font-family:sans-serif;-inkscape-font-specification:'sans-serif, Normal';text-align:start;letter-spacing:0px;word-spacing:0px;writing-mode:lr-tb;text-anchor:start;fill:#000000;fill-opacity:1;stroke:none;stroke-width:1px;stroke-linecap:butt;stroke-linejoin:miter;stroke-opacity:1"
       x="316.17773"
       y="474.55496"
       id="text3526"
       sodipodi:linespacing="125%"><tspan
         sodipodi:role="line"
         id="tspan3528"
         x="316.17773"
         y="474.55496">completions</tspan></text>
    <rect
       style="fill:#c4b7c8;stroke:#000000;stroke-opacity:1"
       id="rect3479-94"
       width="87.751511"
       height="54.548237"
       x="355.28537"
       y="377.09555" />
    <g
       id="g4416"
       transform="translate(-1.0101547,0)">
      <text
         sodipodi:linespacing="125%"
         id="text3547"
         y="397.78336"
         x="369.09732"
         style="font-style:normal;font-variant:normal;font-weight:normal;font-stretch:normal;font-size:20px;line-height:125%;font-family:sans-serif;-inkscape-font-specification:'sans-serif, Normal';text-align:start;letter-spacing:0px;word-spacing:0px;writing-mode:lr-tb;text-anchor:start;fill:#000000;fill-opacity:1;stroke:none;stroke-width:1px;stroke-linecap:butt;stroke-linejoin:miter;stroke-opacity:1"
         xml:space="preserve"><tspan
           y="397.78336"
           x="369.09732"
           id="tspan3549"
           sodipodi:role="line">txt</tspan><tspan
           id="tspan3555"
           y="422.78336"
           x="369.09732"
           sodipodi:role="line">txt</tspan></text>
      <text
         sodipodi:linespacing="125%"
         id="text3547-6"
         y="397.78336"
         x="403.4425"
         style="font-style:normal;font-variant:normal;font-weight:normal;font-stretch:normal;font-size:20px;line-height:125%;font-family:sans-serif;-inkscape-font-specification:'sans-serif, Normal';text-align:start;letter-spacing:0px;word-spacing:0px;writing-mode:lr-tb;text-anchor:start;fill:#000000;fill-opacity:1;stroke:none;stroke-width:1px;stroke-linecap:butt;stroke-linejoin:miter;stroke-opacity:1"
         xml:space="preserve"><tspan
           y="397.78336"
           x="403.4425"
           id="tspan3549-1"
           sodipodi:role="line">txt</tspan><tspan
           id="tspan3555-6"
           y="422.78336"
           x="403.4425"
           sodipodi:role="line">txt</tspan></text>
    </g>
    <rect
       style="fill:#afe9af;stroke:#000000;stroke-opacity:1"
       id="rect3479-7"
       width="66.670067"
       height="41.443554"
       x="365.82608"
       y="491.18643" />
    <rect
       style="fill:#afe9af;stroke:#000000;stroke-opacity:1"
       id="rect3479-3-8"
       width="66.670067"
       height="41.443554"
       x="365.82608"
       y="549.64606" />
    <rect
       style="fill:#afe9af;stroke:#000000;stroke-opacity:1"
       id="rect3479-0-1"
       width="66.670067"
       height="41.443554"
       x="365.82608"
       y="608.10571" />
    <rect
       style="fill:#afe9af;stroke:#000000;stroke-opacity:1"
       id="rect3479-9-1"
       width="66.670067"
       height="41.443554"
       x="365.82608"
       y="666.56531" />
    <path
       style="fill:none;fill-rule:evenodd;stroke:#000000;stroke-width:1px;stroke-linecap:butt;stroke-linejoin:miter;stroke-opacity:1"
       d="M 216.17264,423.03717 350.52293,355.35695"
       id="path4424"
       inkscape:connector-curvature="0" />
    <text
       xml:space="preserve"
       style="font-style:normal;font-weight:normal;font-size:40px;line-height:125%;font-family:sans-serif;letter-spacing:0px;word-spacing:0px;fill:#000000;fill-opacity:1;stroke:none;stroke-width:1px;stroke-linecap:butt;stroke-linejoin:miter;stroke-opacity:1"
       x="128.75241"
       y="455.05716"
       id="text4426"
       sodipodi:linespacing="125%"><tspan
         sodipodi:role="line"
         id="tspan4428"
         x="128.75241"
         y="455.05716">znt</tspan></text>
    <text
       xml:space="preserve"
       style="font-style:normal;font-weight:normal;font-size:40px;line-height:125%;font-family:sans-serif;letter-spacing:0px;word-spacing:0px;fill:#000000;fill-opacity:1;stroke:none;stroke-width:1px;stroke-linecap:butt;stroke-linejoin:miter;stroke-opacity:1"
       x="128.16647"
       y="550.41669"
       id="text4430"
       sodipodi:linespacing="125%"><tspan
         sodipodi:role="line"
         id="tspan4432"
         x="128.16647"
         y="550.41669">zca</tspan></text>
    <text
       xml:space="preserve"
       style="font-style:normal;font-weight:normal;font-size:40px;line-height:125%;font-family:sans-serif;letter-spacing:0px;word-spacing:0px;fill:#000000;fill-opacity:1;stroke:none;stroke-width:1px;stroke-linecap:butt;stroke-linejoin:miter;stroke-opacity:1"
       x="121.43796"
       y="648.82306"
       id="text4434"
       sodipodi:linespacing="125%"><tspan
         sodipodi:role="line"
         id="tspan4436"
         x="121.43796"
         y="648.82306">zew</tspan></text>
    <text
       xml:space="preserve"
       style="font-style:normal;font-weight:normal;font-size:40px;line-height:125%;font-family:sans-serif;letter-spacing:0px;word-spacing:0px;fill:#000000;fill-opacity:1;stroke:none;stroke-width:1px;stroke-linecap:butt;stroke-linejoin:miter;stroke-opacity:1"
       x="121.46725"
       y="751.07709"
       id="text4438"
       sodipodi:linespacing="125%"><tspan
         sodipodi:role="line"
         id="tspan4440"
         x="121.46725"
         y="751.07709">calc</tspan></text>
    <text
       xml:space="preserve"
       style="font-style:normal;font-variant:normal;font-weight:normal;font-stretch:normal;font-size:20px;line-height:125%;font-family:sans-serif;-inkscape-font-specification:'sans-serif, Normal';text-align:start;letter-spacing:0px;word-spacing:0px;writing-mode:lr-tb;text-anchor:start;fill:#000000;fill-opacity:1;stroke:none;stroke-width:1px;stroke-linecap:butt;stroke-linejoin:miter;stroke-opacity:1"
       x="387.73044"
       y="515.50195"
       id="text4442"
       sodipodi:linespacing="125%"><tspan
         sodipodi:role="line"
         id="tspan4444"
         x="387.73044"
         y="515.50195">cp</tspan></text>
    <text
       xml:space="preserve"
       style="font-style:normal;font-variant:normal;font-weight:normal;font-stretch:normal;font-size:20px;line-height:125%;font-family:sans-serif;-inkscape-font-specification:'sans-serif, Normal';text-align:start;letter-spacing:0px;word-spacing:0px;writing-mode:lr-tb;text-anchor:start;fill:#000000;fill-opacity:1;stroke:none;stroke-width:1px;stroke-linecap:butt;stroke-linejoin:miter;stroke-opacity:1"
       x="371.21677"
       y="577.81415"
       id="text4446"
       sodipodi:linespacing="125%"><tspan
         sodipodi:role="line"
         id="tspan4448"
         x="371.21677"
         y="577.81415">xauth</tspan></text>
    <text
       xml:space="preserve"
       style="font-style:normal;font-variant:normal;font-weight:normal;font-stretch:normal;font-size:20px;line-height:125%;font-family:sans-serif;-inkscape-font-specification:'sans-serif, Normal';text-align:start;letter-spacing:0px;word-spacing:0px;writing-mode:lr-tb;text-anchor:start;fill:#000000;fill-opacity:1;stroke:none;stroke-width:1px;stroke-linecap:butt;stroke-linejoin:miter;stroke-opacity:1"
       x="390.69431"
       y="636.29333"
       id="text4450"
       sodipodi:linespacing="125%"><tspan
         sodipodi:role="line"
         id="tspan4452"
         x="390.69431"
         y="636.29333">ls</tspan></text>
    <text
       xml:space="preserve"
       style="font-style:normal;font-variant:normal;font-weight:normal;font-stretch:normal;font-size:20px;line-height:125%;font-family:sans-serif;-inkscape-font-specification:'sans-serif, Normal';text-align:start;letter-spacing:0px;word-spacing:0px;writing-mode:lr-tb;text-anchor:start;fill:#000000;fill-opacity:1;stroke:none;stroke-width:1px;stroke-linecap:butt;stroke-linejoin:miter;stroke-opacity:1"
       x="390.03024"
       y="694.88477"
       id="text4454"
       sodipodi:linespacing="125%"><tspan
         sodipodi:role="line"
         id="tspan4456"
         x="390.03024"
         y="694.88477">ln</tspan></text>
    <text
       xml:space="preserve"
       style="font-style:normal;font-variant:normal;font-weight:normal;font-stretch:normal;font-size:25px;line-height:125%;font-family:sans-serif;-inkscape-font-specification:'sans-serif, Normal';text-align:center;letter-spacing:0px;word-spacing:0px;writing-mode:lr-tb;text-anchor:middle;fill:#000000;fill-opacity:1;stroke:none;stroke-width:1px;stroke-linecap:butt;stroke-linejoin:miter;stroke-opacity:1"
       x="498.04581"
       y="538.27576"
       id="text4474"
       sodipodi:linespacing="125%"><tspan
         sodipodi:role="line"
         id="tspan4476"
         x="498.04581"
         y="538.27576">install</tspan><tspan
         sodipodi:role="line"
         x="498.04581"
         y="569.52576"
         id="tspan4482">uninstall</tspan><tspan
         sodipodi:role="line"
         x="498.04581"
         y="600.77576"
         id="tspan4484">enable</tspan><tspan
         sodipodi:role="line"
         x="498.04581"
         y="632.02576"
         id="tspan4486">disable</tspan><tspan
         sodipodi:role="line"
         x="498.04581"
         y="663.27576"
         id="tspan4488">search</tspan></text>
    <text
       xml:space="preserve"
       style="font-style:normal;font-variant:normal;font-weight:normal;font-stretch:normal;font-size:25px;line-height:125%;font-family:sans-serif;-inkscape-font-specification:'sans-serif, Normal';text-align:center;letter-spacing:0px;word-spacing:0px;writing-mode:lr-tb;text-anchor:middle;fill:#000000;fill-opacity:1;stroke:none;stroke-width:1px;stroke-linecap:butt;stroke-linejoin:miter;stroke-opacity:1"
       x="269.69043"
       y="533.1438"
       id="text4490"
       sodipodi:linespacing="125%"><tspan
         sodipodi:role="line"
         id="tspan4492"
         x="269.69043"
         y="533.1438">list</tspan><tspan
         sodipodi:role="line"
         x="269.69043"
         y="564.3938"
         id="tspan4498">load</tspan><tspan
         sodipodi:role="line"
         x="269.69043"
         y="595.6438"
         id="tspan4494">unload</tspan><tspan
         sodipodi:role="line"
         x="269.69043"
         y="626.8938"
         id="tspan4500">status</tspan><tspan
         sodipodi:role="line"
         x="269.69043"
         y="658.1438"
         id="tspan4502">update</tspan><tspan
         sodipodi:role="line"
         x="269.69043"
         y="689.3938"
         id="tspan4496" /></text>
  </g>
</svg>
